<svg width="20" height="20" viewBox="0 0 20 20" fill="none" xmlns="http://www.w3.org/2000/svg">
<path d="M15.8333 3.33332H15V1.66666H13.3333V3.33332H6.66667V1.66666H5V3.33332H4.16667C3.72464 3.33332 3.30072 3.50892 2.98816 3.82148C2.67559 4.13404 2.5 4.55796 2.5 4.99999V16.6667C2.5 17.1087 2.67559 17.5326 2.98816 17.8452C3.30072 18.1577 3.72464 18.3333 4.16667 18.3333H8.33333V16.6667H4.16667V7.49999H15.8333V8.33332H17.5V4.99999C17.5 4.55796 17.3244 4.13404 17.0118 3.82148C16.6993 3.50892 16.2754 3.33332 15.8333 3.33332ZM18.0833 11.9583L17.25 12.7917L15.5417 11.125L16.375 10.2917C16.5425 10.1142 16.8225 10.1067 17.0167 10.2917L18.0833 11.3583C18.1589 11.44 18.2009 11.5471 18.2009 11.6583C18.2009 11.7696 18.1589 11.8767 18.0833 11.9583ZM10 16.6167L15.0583 11.5667L16.7667 13.2333L11.7167 18.3333H10V16.6167Z" fill="#292E4E"/>
</svg>
