<svg width="28" height="18" viewBox="0 0 28 18" fill="none" xmlns="http://www.w3.org/2000/svg">
<path d="M1.55556 18H7.77778C8.63333 18 9.33333 17.325 9.33333 16.5C9.33333 15.675 8.63333 15 7.77778 15H1.55556C0.7 15 0 15.675 0 16.5C0 17.325 0.7 18 1.55556 18ZM0 1.5C0 2.325 0.7 3 1.55556 3H26.4444C27.3 3 28 2.325 28 1.5C28 0.675 27.3 0 26.4444 0H1.55556C0.7 0 0 0.675 0 1.5ZM1.55556 10.5H17.1111C17.9667 10.5 18.6667 9.825 18.6667 9C18.6667 8.175 17.9667 7.5 17.1111 7.5H1.55556C0.7 7.5 0 8.175 0 9C0 9.825 0.7 10.5 1.55556 10.5Z" fill="white"/>
</svg>
