<svg width="313" height="66" viewBox="0 0 313 66" fill="none" xmlns="http://www.w3.org/2000/svg">
<path d="M105.25 48C104.817 48 104.45 47.8667 104.15 47.6C103.883 47.3 103.75 46.9333 103.75 46.5V11.65H91.1C90.7 11.65 90.3667 11.5333 90.1 11.3C89.8667 11.0333 89.75 10.7 89.75 10.3C89.75 9.9 89.8667 9.58333 90.1 9.35C90.3667 9.08333 90.7 8.95 91.1 8.95H119.4C119.8 8.95 120.117 9.08333 120.35 9.35C120.617 9.58333 120.75 9.9 120.75 10.3C120.75 10.7 120.617 11.0333 120.35 11.3C120.117 11.5333 119.8 11.65 119.4 11.65H106.75V46.5C106.75 46.9333 106.6 47.3 106.3 47.6C106.033 47.8667 105.683 48 105.25 48ZM131 48.3C128.333 48.3 125.933 47.7 123.8 46.5C121.7 45.2667 120.033 43.6 118.8 41.5C117.6 39.3667 117 36.9833 117 34.35C117 31.6833 117.6 29.3 118.8 27.2C120.033 25.0667 121.7 23.4 123.8 22.2C125.933 20.9667 128.333 20.35 131 20.35C133.667 20.35 136.05 20.9667 138.15 22.2C140.25 23.4 141.9 25.0667 143.1 27.2C144.333 29.3 144.95 31.6833 144.95 34.35C144.95 36.9833 144.333 39.3667 143.1 41.5C141.9 43.6 140.25 45.2667 138.15 46.5C136.05 47.7 133.667 48.3 131 48.3ZM131 45.5C133.1 45.5 134.967 45.0167 136.6 44.05C138.267 43.05 139.567 41.7167 140.5 40.05C141.467 38.35 141.95 36.45 141.95 34.35C141.95 32.2167 141.467 30.3167 140.5 28.65C139.567 26.95 138.267 25.6167 136.6 24.65C134.967 23.65 133.1 23.15 131 23.15C128.933 23.15 127.067 23.65 125.4 24.65C123.733 25.6167 122.417 26.95 121.45 28.65C120.483 30.3167 120 32.2167 120 34.35C120 36.45 120.483 38.35 121.45 40.05C122.417 41.7167 123.733 43.05 125.4 44.05C127.067 45.0167 128.933 45.5 131 45.5ZM154.436 48C154.002 48 153.636 47.8667 153.336 47.6C153.069 47.3 152.936 46.9333 152.936 46.5V10.45C152.936 9.98333 153.069 9.61666 153.336 9.35C153.636 9.08333 154.002 8.95 154.436 8.95H163.436C166.302 8.95 168.919 9.43333 171.286 10.4C173.686 11.3333 175.752 12.6833 177.486 14.45C179.252 16.1833 180.602 18.2333 181.536 20.6C182.502 22.9667 182.986 25.5833 182.986 28.45C182.986 31.3167 182.502 33.95 181.536 36.35C180.602 38.7167 179.252 40.7833 177.486 42.55C175.752 44.2833 173.686 45.6333 171.286 46.6C168.919 47.5333 166.302 48 163.436 48H154.436ZM155.936 45.3H163.436C166.669 45.3 169.519 44.5667 171.986 43.1C174.486 41.6333 176.436 39.6333 177.836 37.1C179.269 34.5667 179.986 31.6833 179.986 28.45C179.986 25.2167 179.269 22.35 177.836 19.85C176.436 17.3167 174.486 15.3167 171.986 13.85C169.519 12.3833 166.669 11.65 163.436 11.65H155.936V45.3ZM202.973 48.3C200.306 48.3 197.906 47.7 195.773 46.5C193.673 45.2667 192.006 43.6 190.773 41.5C189.573 39.3667 188.973 36.9833 188.973 34.35C188.973 31.6833 189.573 29.3 190.773 27.2C192.006 25.0667 193.673 23.4 195.773 22.2C197.906 20.9667 200.306 20.35 202.973 20.35C205.639 20.35 208.023 20.9667 210.123 22.2C212.223 23.4 213.873 25.0667 215.073 27.2C216.306 29.3 216.923 31.6833 216.923 34.35C216.923 36.9833 216.306 39.3667 215.073 41.5C213.873 43.6 212.223 45.2667 210.123 46.5C208.023 47.7 205.639 48.3 202.973 48.3ZM202.973 45.5C205.073 45.5 206.939 45.0167 208.573 44.05C210.239 43.05 211.539 41.7167 212.473 40.05C213.439 38.35 213.923 36.45 213.923 34.35C213.923 32.2167 213.439 30.3167 212.473 28.65C211.539 26.95 210.239 25.6167 208.573 24.65C206.939 23.65 205.073 23.15 202.973 23.15C200.906 23.15 199.039 23.65 197.373 24.65C195.706 25.6167 194.389 26.95 193.423 28.65C192.456 30.3167 191.973 32.2167 191.973 34.35C191.973 36.45 192.456 38.35 193.423 40.05C194.389 41.7167 195.706 43.05 197.373 44.05C199.039 45.0167 200.906 45.5 202.973 45.5ZM226.408 48C226.008 48 225.658 47.8667 225.358 47.6C225.058 47.3 224.908 46.9333 224.908 46.5V10.45C224.908 10.0167 225.058 9.66666 225.358 9.4C225.658 9.1 226.008 8.95 226.408 8.95C226.842 8.95 227.192 9.1 227.458 9.4C227.758 9.66666 227.908 10.0167 227.908 10.45V45.3H248.458C248.925 45.3 249.292 45.4333 249.558 45.7C249.825 45.9333 249.958 46.25 249.958 46.65C249.958 47.05 249.825 47.3833 249.558 47.65C249.292 47.8833 248.925 48 248.458 48H226.408ZM258.207 48C257.774 48 257.407 47.8667 257.107 47.6C256.84 47.3 256.707 46.9333 256.707 46.5V22.15C256.707 21.6833 256.84 21.3167 257.107 21.05C257.407 20.7833 257.774 20.65 258.207 20.65C258.674 20.65 259.04 20.7833 259.307 21.05C259.574 21.3167 259.707 21.6833 259.707 22.15V46.5C259.707 46.9333 259.574 47.3 259.307 47.6C259.04 47.8667 258.674 48 258.207 48ZM258.157 14.9C257.524 14.9 256.974 14.6833 256.507 14.25C256.074 13.7833 255.857 13.2167 255.857 12.55C255.857 11.7833 256.09 11.2167 256.557 10.85C257.057 10.45 257.607 10.25 258.207 10.25C258.774 10.25 259.29 10.45 259.757 10.85C260.257 11.2167 260.507 11.7833 260.507 12.55C260.507 13.2167 260.274 13.7833 259.807 14.25C259.374 14.6833 258.824 14.9 258.157 14.9ZM279.021 48.3C277.287 48.3 275.471 47.9833 273.571 47.35C271.671 46.7167 270.087 45.65 268.821 44.15C268.554 43.8167 268.437 43.4667 268.471 43.1C268.537 42.7 268.754 42.3667 269.121 42.1C269.454 41.8667 269.804 41.7833 270.171 41.85C270.571 41.9167 270.887 42.1 271.121 42.4C272.087 43.5333 273.254 44.3333 274.621 44.8C276.021 45.2333 277.537 45.45 279.171 45.45C281.971 45.45 283.954 44.95 285.121 43.95C286.287 42.95 286.871 41.7833 286.871 40.45C286.871 37.8167 284.321 36.1333 279.221 35.4C275.887 34.9333 273.421 34.0333 271.821 32.7C270.221 31.3667 269.421 29.8167 269.421 28.05C269.421 25.55 270.321 23.65 272.121 22.35C273.954 21.0167 276.271 20.35 279.071 20.35C281.337 20.35 283.254 20.7667 284.821 21.6C286.387 22.4 287.654 23.4833 288.621 24.85C288.887 25.1833 288.971 25.55 288.871 25.95C288.804 26.3167 288.554 26.6167 288.121 26.85C287.787 27.0167 287.437 27.0667 287.071 27C286.704 26.9333 286.387 26.7333 286.121 26.4C284.421 24.2333 282.037 23.15 278.971 23.15C276.871 23.15 275.237 23.6 274.071 24.5C272.904 25.4 272.321 26.4833 272.321 27.75C272.321 29.05 272.887 30.1167 274.021 30.95C275.154 31.75 277.087 32.35 279.821 32.75C282.321 33.0833 284.287 33.65 285.721 34.45C287.187 35.25 288.221 36.1833 288.821 37.25C289.454 38.2833 289.771 39.4 289.771 40.6C289.771 42.1667 289.271 43.5333 288.271 44.7C287.271 45.8667 285.954 46.7667 284.321 47.4C282.687 48 280.921 48.3 279.021 48.3ZM307.727 48C305.894 47.9667 304.261 47.55 302.827 46.75C301.394 45.9167 300.277 44.7833 299.477 43.35C298.677 41.8833 298.277 40.2333 298.277 38.4V24.35H294.377C293.977 24.35 293.644 24.2333 293.377 24C293.144 23.7333 293.027 23.4 293.027 23C293.027 22.6 293.144 22.2833 293.377 22.05C293.644 21.7833 293.977 21.65 294.377 21.65H298.277V13.5C298.277 13.0333 298.411 12.6667 298.677 12.4C298.977 12.1 299.344 11.95 299.777 11.95C300.244 11.95 300.611 12.1 300.877 12.4C301.177 12.6667 301.327 13.0333 301.327 13.5V21.65H307.927C308.327 21.65 308.644 21.7833 308.877 22.05C309.144 22.2833 309.277 22.6 309.277 23C309.277 23.4 309.144 23.7333 308.877 24C308.644 24.2333 308.327 24.35 307.927 24.35H301.327V38.4C301.327 40.3333 301.927 41.9167 303.127 43.15C304.327 44.35 305.877 44.95 307.777 44.95H308.877C309.344 44.95 309.711 45.1 309.977 45.4C310.277 45.6667 310.427 46.0333 310.427 46.5C310.427 46.9333 310.277 47.3 309.977 47.6C309.711 47.8667 309.344 48 308.877 48H307.727Z" fill="#292E4E"/>
<g opacity="0.8">
<path d="M24.475 24.8876L14.3 34.9251L8.525 29.2876L5.5 32.3126L14.3 41.1126L27.5 27.9126L24.475 24.8876Z" fill="#F88081"/>
<path d="M24.475 7.01262L14.3 17.0501L8.525 11.4126L5.5 14.4376L14.3 23.2376L27.5 10.0376L24.475 7.01262Z" fill="#F88081"/>
<path d="M24.475 42.7626L14.3 52.8001L8.525 47.1626L5.5 50.1876L14.3 58.9876L27.5 45.7876L24.475 42.7626Z" fill="#F88081"/>
<path d="M33 30.25H60.5V35.75H33V30.25Z" fill="#6A63FF"/>
<path d="M33 12.375H60.5V17.875H33V12.375Z" fill="#6A63FF"/>
<path d="M33 48.125H60.5V53.625H33V48.125Z" fill="#6A63FF"/>
</g>
<rect opacity="0.9" x="89" y="57" width="127" height="2" fill="#6A63FF"/>
<rect opacity="0.9" x="225" y="57" width="85" height="2" fill="#F88081"/>
</svg>
